# xmcd CD database file
#
# Track frame offsets:
#	150
#	4395
#	20443
#	37000
#	46310
#	59943
#	76758
#	83293
#	102525
#	118910
#	132555
#	138680
#	149260
#	168730
#	179823
#
# Disc length: 2622 seconds
#
# Revision: 3
# Processed by: cddbd v1.5.1PL2 Copyright (c) Steve Scherf et al.
# Submitted via: CDex 1.51
#
DISCID=e20a3c0f
DTITLE=川井憲次 - INTERFACE
DYEAR=1988
DGENRE=Soundtrack
TTITLE0=序章-Night Stalker-
TTITLE1=未来派Lovers
TTITLE2=アルフォンス
TTITLE3=第２小隊
TTITLE4=バビロンの影
TTITLE5=出動〜PATLABOR〜
TTITLE6=そして、夜明け
TTITLE7=冷たいくらいが好き
TTITLE8=Diamond Flight
TTITLE9=４億５千万年の罠
TTITLE10=特車隊マーチ
TTITLE11=黒い鼓動
TTITLE12=幻影の果てに
TTITLE13=メガロシティ・ポリス
TTITLE14=INTERFACE
EXTD=YEAR: 1988
EXTT0=
EXTT1=
EXTT2=
EXTT3=
EXTT4=
EXTT5=
EXTT6=
EXTT7=
EXTT8=
EXTT9=
EXTT10=
EXTT11=
EXTT12=
EXTT13=
EXTT14=
PLAYORDER=
